<mxfile host="app.diagrams.net" modified="2024-01-11T10:56:24.069Z" agent="Mozilla/5.0 (Windows NT 10.0; Win64; x64) AppleWebKit/537.36 (KHTML, like Gecko) Chrome/120.0.0.0 Safari/537.36" etag="zXZOCIFBuypba-GaCNeo" version="22.1.18" type="github">
  <diagram name="Page-1" id="zEH0HP5n5IJBCLLT55Cp">
    <mxGraphModel dx="583" dy="587" grid="1" gridSize="10" guides="1" tooltips="1" connect="1" arrows="1" fold="1" page="1" pageScale="1" pageWidth="827" pageHeight="1169" math="0" shadow="0">
      <root>
        <mxCell id="0" />
        <mxCell id="1" parent="0" />
        <mxCell id="xDCp34uqdCx_QJ40lxjv-49" value="Maps" style="rounded=0;whiteSpace=wrap;html=1;" vertex="1" parent="1">
          <mxGeometry x="520" y="320" width="80" height="40" as="geometry" />
        </mxCell>
        <mxCell id="xDCp34uqdCx_QJ40lxjv-50" value="Game" style="rounded=0;whiteSpace=wrap;html=1;" vertex="1" parent="1">
          <mxGeometry x="520" y="240" width="80" height="40" as="geometry" />
        </mxCell>
        <mxCell id="xDCp34uqdCx_QJ40lxjv-51" value="MapsFunctions" style="rounded=0;whiteSpace=wrap;html=1;" vertex="1" parent="1">
          <mxGeometry x="450" y="400" width="90" height="40" as="geometry" />
        </mxCell>
        <mxCell id="xDCp34uqdCx_QJ40lxjv-52" value="RoomMapCollection" style="rounded=0;whiteSpace=wrap;html=1;" vertex="1" parent="1">
          <mxGeometry x="580" y="400" width="110" height="40" as="geometry" />
        </mxCell>
        <mxCell id="xDCp34uqdCx_QJ40lxjv-53" value="MapOperations" style="rounded=0;whiteSpace=wrap;html=1;" vertex="1" parent="1">
          <mxGeometry x="450" y="480" width="90" height="40" as="geometry" />
        </mxCell>
        <mxCell id="xDCp34uqdCx_QJ40lxjv-54" value="MapInitialization" style="rounded=0;whiteSpace=wrap;html=1;" vertex="1" parent="1">
          <mxGeometry x="580" y="480" width="90" height="40" as="geometry" />
        </mxCell>
        <mxCell id="xDCp34uqdCx_QJ40lxjv-55" value="MapHelper" style="rounded=0;whiteSpace=wrap;html=1;" vertex="1" parent="1">
          <mxGeometry x="334" y="480" width="80" height="40" as="geometry" />
        </mxCell>
        <mxCell id="xDCp34uqdCx_QJ40lxjv-56" value="TwoDArrayFunctions" style="rounded=0;whiteSpace=wrap;html=1;" vertex="1" parent="1">
          <mxGeometry x="290" y="560" width="120" height="40" as="geometry" />
        </mxCell>
        <mxCell id="xDCp34uqdCx_QJ40lxjv-58" value="" style="edgeStyle=orthogonalEdgeStyle;rounded=0;orthogonalLoop=1;jettySize=auto;html=1;" edge="1" parent="1" source="xDCp34uqdCx_QJ40lxjv-57" target="xDCp34uqdCx_QJ40lxjv-53">
          <mxGeometry relative="1" as="geometry" />
        </mxCell>
        <mxCell id="xDCp34uqdCx_QJ40lxjv-57" value="BoolFunctions" style="rounded=0;whiteSpace=wrap;html=1;" vertex="1" parent="1">
          <mxGeometry x="470" y="620" width="80" height="40" as="geometry" />
        </mxCell>
      </root>
    </mxGraphModel>
  </diagram>
</mxfile>
